<svg width="29" height="29" viewBox="0 0 29 29" fill="none" xmlns="http://www.w3.org/2000/svg">
<path d="M23.4891 21.2185C23.1962 20.9256 22.7213 20.9256 22.4284 21.2185C22.1355 21.5114 22.1355 21.9862 22.4284 22.2791L23.4891 21.2185ZM27.2616 27.1124C27.5545 27.4053 28.0294 27.4053 28.3223 27.1124C28.6152 26.8195 28.6152 26.3446 28.3223 26.0518L27.2616 27.1124ZM11.2558 5.64718C11.6649 5.58238 11.9441 5.1982 11.8793 4.78908C11.8145 4.37997 11.4303 4.10085 11.0212 4.16564L11.2558 5.64718ZM5.37557 9.81124C5.31077 10.2204 5.58989 10.6045 5.99901 10.6693C6.40812 10.7341 6.7923 10.455 6.8571 10.0459L5.37557 9.81124ZM22.4284 22.2791L27.2616 27.1124L28.3223 26.0518L23.4891 21.2185L22.4284 22.2791ZM13.292 22.207C7.70011 22.207 3.16699 17.6739 3.16699 12.082H1.66699C1.66699 18.5023 6.87168 23.707 13.292 23.707V22.207ZM23.417 12.082C23.417 17.6739 18.8839 22.207 13.292 22.207V23.707C19.7123 23.707 24.917 18.5023 24.917 12.082H23.417ZM13.292 1.95703C18.8839 1.95703 23.417 6.49015 23.417 12.082H24.917C24.917 5.66172 19.7123 0.457031 13.292 0.457031V1.95703ZM13.292 0.457031C6.87168 0.457031 1.66699 5.66172 1.66699 12.082H3.16699C3.16699 6.49015 7.70011 1.95703 13.292 1.95703V0.457031ZM11.0212 4.16564C8.11506 4.62592 5.83585 6.90514 5.37557 9.81124L6.8571 10.0459C7.21572 7.78163 8.99155 6.0058 11.2558 5.64718L11.0212 4.16564Z" fill="#2D264B"/>
</svg>
